<?xml version="1.0" encoding="UTF-8" standalone="no"?>
<!-- Created with Inkscape (http://www.inkscape.org/) -->

<svg
   width="512"
   height="512"
   viewBox="0 0 512 512"
   version="1.1"
   id="svg1"
   xml:space="preserve"
   sodipodi:docname="homemate_mod4.svg"
   inkscape:version="1.3.2 (091e20e, 2023-11-25, custom)"
   xmlns:inkscape="http://www.inkscape.org/namespaces/inkscape"
   xmlns:sodipodi="http://sodipodi.sourceforge.net/DTD/sodipodi-0.dtd"
   xmlns="http://www.w3.org/2000/svg"
   xmlns:svg="http://www.w3.org/2000/svg"><sodipodi:namedview
     id="namedview1"
     pagecolor="#ffffff"
     bordercolor="#000000"
     borderopacity="0.25"
     inkscape:showpageshadow="2"
     inkscape:pageopacity="0.0"
     inkscape:pagecheckerboard="0"
     inkscape:deskcolor="#d1d1d1"
     inkscape:document-units="px"
     inkscape:zoom="2.2558594"
     inkscape:cx="256"
     inkscape:cy="255.77835"
     inkscape:window-width="2560"
     inkscape:window-height="1476"
     inkscape:window-x="-12"
     inkscape:window-y="-12"
     inkscape:window-maximized="1"
     inkscape:current-layer="layer1" /><defs
     id="defs1"><inkscape:path-effect
       effect="fillet_chamfer"
       id="path-effect10"
       is_visible="true"
       lpeversion="1"
       nodesatellites_param="F,0,0,1,0,2.0818323,0,1 @ F,0,0,1,0,1.806867,0,1 @ F,0,0,1,0,0,0,1 @ F,0,0,1,0,0,0,1"
       radius="0"
       unit="px"
       method="auto"
       mode="F"
       chamfer_steps="1"
       flexible="false"
       use_knot_distance="true"
       apply_no_radius="true"
       apply_with_radius="true"
       only_selected="false"
       hide_knots="false" /><inkscape:path-effect
       effect="fillet_chamfer"
       id="path-effect9"
       is_visible="true"
       lpeversion="1"
       nodesatellites_param="F,0,0,1,0,5.2580077,0,1 @ F,0,0,1,0,0,0,1 @ F,0,0,1,0,0,0,1 @ F,0,0,1,0,0,0,1 @ F,0,0,1,0,0,0,1"
       radius="0"
       unit="px"
       method="auto"
       mode="F"
       chamfer_steps="1"
       flexible="false"
       use_knot_distance="true"
       apply_no_radius="true"
       apply_with_radius="true"
       only_selected="false"
       hide_knots="false" /><inkscape:path-effect
       effect="fillet_chamfer"
       id="path-effect8"
       is_visible="true"
       lpeversion="1"
       nodesatellites_param="F,0,0,1,0,15.836598,0,1 @ F,0,1,1,0,5.95532,0,1 @ F,0,0,1,0,13.603411,0,1 @ F,0,0,1,0,15.473716,0,1 @ F,0,0,1,0,5.95532,0,1 @ F,0,0,1,0,15.696866,0,1"
       radius="0"
       unit="px"
       method="auto"
       mode="F"
       chamfer_steps="1"
       flexible="false"
       use_knot_distance="true"
       apply_no_radius="true"
       apply_with_radius="true"
       only_selected="false"
       hide_knots="false" /><inkscape:path-effect
       effect="fillet_chamfer"
       id="path-effect7"
       nodesatellites_param="F,0,0,1,0,0,0,1 @ F,0,0,1,0,0,0,1 @ F,0,0,1,0,0,0,1 @ F,0,0,1,0,0,0,1 @ F,0,0,1,0,0,0,1 @ F,0,0,1,0,0,0,1"
       is_visible="true"
       lpeversion="1"
       radius="0"
       unit="px"
       method="auto"
       mode="F"
       chamfer_steps="1"
       flexible="false"
       use_knot_distance="true"
       apply_no_radius="true"
       apply_with_radius="true"
       only_selected="false"
       hide_knots="false" /><inkscape:path-effect
       effect="fillet_chamfer"
       id="path-effect6"
       is_visible="true"
       lpeversion="1"
       nodesatellites_param="F,0,0,1,0,0,0,1 @ F,0,0,1,0,2.4497835,0,1 @ F,0,0,1,0,41.894587,0,1 @ F,0,0,1,0,0,0,1"
       radius="0"
       unit="px"
       method="auto"
       mode="F"
       chamfer_steps="1"
       flexible="false"
       use_knot_distance="true"
       apply_no_radius="true"
       apply_with_radius="true"
       only_selected="false"
       hide_knots="false" /><inkscape:path-effect
       effect="fillet_chamfer"
       id="path-effect4"
       is_visible="true"
       lpeversion="1"
       nodesatellites_param="F,0,0,1,0,0,0,1 @ F,0,0,1,0,0,0,1 @ F,0,0,1,0,0,0,1 @ F,0,0,1,0,55.999993,0,1"
       radius="0"
       unit="px"
       method="auto"
       mode="F"
       chamfer_steps="1"
       flexible="false"
       use_knot_distance="true"
       apply_no_radius="true"
       apply_with_radius="true"
       only_selected="false"
       hide_knots="false" /><inkscape:path-effect
       effect="fillet_chamfer"
       id="path-effect3"
       is_visible="true"
       lpeversion="1"
       nodesatellites_param="F,0,0,1,0,0,0,1 @ F,0,0,1,0,2.5676904,0,1 @ F,0,0,1,0,41.894587,0,1 @ F,0,0,1,0,0,0,1"
       radius="0"
       unit="px"
       method="auto"
       mode="F"
       chamfer_steps="1"
       flexible="false"
       use_knot_distance="true"
       apply_no_radius="true"
       apply_with_radius="true"
       only_selected="false"
       hide_knots="false" /></defs><g
     inkscape:label="Calque 1"
     inkscape:groupmode="layer"
     id="layer1"><g
       inkscape:label="Calque 1"
       id="layer1-7"
       transform="matrix(0.68669418,0,0,0.68669418,78.773177,81.140427)"
       style="display:inline;stroke-width:1.45625"><path
         id="rect1"
         style="opacity:1;fill:#020033;stroke-width:2.9125"
         inkscape:label="home_pilar_right"
         d="m 372.63724,198.57402 43.99921,35.39068 a 5.3605506,5.3605506 64.405695 0 1 2.00078,4.17701 v 128.53772 a 41.894587,41.894587 135 0 1 -41.89459,41.89459 h -4.1054 z"
         sodipodi:nodetypes="ccccc"
         inkscape:path-effect="#path-effect3"
         inkscape:original-d="m 372.63724,198.57402 45.99999,37 v 173 h -45.99999 z"
         transform="translate(0,30)" /><path
         id="path4"
         style="opacity:1;fill:#020033;stroke-width:2.9125"
         inkscape:label="home_pilar_left"
         d="m 372.63723,198.57402 44.0911,35.46458 a 5.1143964,5.1143964 64.405692 0 1 1.9089,3.9852 v 128.65563 a 41.894587,41.894587 135 0 1 -41.89459,41.89459 h -4.10541 z"
         sodipodi:nodetypes="ccccc"
         inkscape:path-effect="#path-effect6"
         inkscape:original-d="m 372.63723,198.57402 46,37 v 173 h -46 z"
         transform="matrix(-1,0,0,1,515.27446,30)" /><path
         id="rect3"
         style="fill:#63bed7;stroke-width:2.91248"
         inkscape:label="home_center"
         d="m 257.63723,135.46465 c -1.48009,1e-4 -2.91387,0.51601 -4.05469,1.45898 l -110.94531,91.65039 v 210 h 230 v -210 L 261.69192,136.92363 c -1.14082,-0.94297 -2.5746,-1.45888 -4.05469,-1.45898 z m -23,74.10937 h 15 c 2.77,0 5,2.23 5,5 v 15 c 0,2.77 -2.23,5 -5,5 h -15 c -2.77,0 -5,-2.23 -5,-5 v -15 c 0,-2.77 2.23,-5 5,-5 z m 31,0 h 15 c 2.77,0 5,2.23 5,5 v 15 c 0,2.77 -2.23,5 -5,5 h -15 c -2.77,0 -5,-2.23 -5,-5 v -15 c 0,-2.77 2.23,-5 5,-5 z m -31,32 h 15 c 2.77,0 5,2.23 5,5 v 15 c 0,2.77 -2.23,5 -5,5 h -15 c -2.77,0 -5,-2.23 -5,-5 v -15 c 0,-2.77 2.23,-5 5,-5 z m 31,0 h 15 c 2.77,0 5,2.23 5,5 v 15 c 0,2.77 -2.23,5 -5,5 h -15 c -2.77,0 -5,-2.23 -5,-5 v -15 c 0,-2.77 2.23,-5 5,-5 z"
         sodipodi:nodetypes="ccccccccssssssssssssssssssssssssssssssssssss" /><path
         id="rect6"
         style="opacity:1;fill:#020033;fill-opacity:1;stroke-width:2.9125"
         inkscape:label="roof"
         d="M 68.877785,223.5258 253.03419,72.352631 a 7.2546625,7.2546625 0 0 1 9.20608,0 l 185.8825,152.590119 a 13.776068,13.776068 84.021114 0 1 2.01648,19.25375 l -1.83567,2.29458 a 15.208705,15.208705 174.15467 0 1 -21.58052,2.20932 L 262.2226,112.37405 a 7.1860861,7.1860861 180 0 0 -9.17074,0 L 88.723218,248.55801 a 15.428033,15.428033 5.8453273 0 1 -21.891742,-2.24118 l -0.301202,-0.3765 a 16.037598,16.037598 95.978886 0 1 2.347511,-22.41453 z"
         sodipodi:nodetypes="ccccccc"
         inkscape:path-effect="#path-effect8"
         inkscape:original-d="m 56.63723,233.57402 201,-165 201,165 -20,25 -181,-150 -181,150 z" /><path
         id="rect9"
         style="opacity:1;fill:#020033;stroke-width:2.9125"
         d="m 323.71906,78.573986 56.1113,6.9e-5 a 1.8068692,1.8068692 45.000035 0 1 1.80687,1.806869 v 97.759686 l -60,-22.00007 0,-75.484725 a 2.0818297,2.0818297 135.00004 0 1 2.08183,-2.081829 z"
         sodipodi:nodetypes="ccccc"
         inkscape:label="chimney"
         inkscape:path-effect="#path-effect10"
         inkscape:original-d="m 321.63723,78.573983 60,7.4e-5 v 99.566553 l -60,-22.00007 z" /><path
         id="rect10"
         style="fill:#020033;stroke-width:2.9125"
         inkscape:label="door"
         d="m 225.63724,328.57402 h 64 c 2.77,0 5,2.23 5,5 V 438.574 c -1.84154,0 -2.23,2e-5 -5,2e-5 h -68.99999 c 0,-22.31967 -1e-5,-74.55433 -1e-5,-105 0,-2.77 2.23,-5 5,-5 z"
         sodipodi:nodetypes="sssccsss" /></g><path
       id="path2"
       style="fill:#63bed7;stroke-width:20"
       inkscape:label="path2"
       d="M -0.00429 139.54296 A 222.5 222.5 0 0 0 -128.98867 181.36913 A 37.5 37.5 0 0 1 -122.69179 186.32226 A 37.5 37.5 0 0 1 -115.64296 196.14062 A 202.5 202.5 0 0 1 -0.00429 159.54296 A 202.5 202.5 0 0 1 115.77501 195.98632 A 37.5 37.5 0 0 1 122.68321 186.32226 A 37.5 37.5 0 0 1 129.38633 181.10937 A 222.5 222.5 0 0 0 -0.00429 139.54296 z M 180.98008 232.7246 A 37.5 37.5 0 0 1 175.71641 239.35546 A 37.5 37.5 0 0 1 166.05235 246.26366 A 202.5 202.5 0 0 1 202.49571 362.04296 A 202.5 202.5 0 0 1 165.86485 477.73632 A 37.5 37.5 0 0 1 175.71641 484.73046 A 37.5 37.5 0 0 1 180.72423 490.95507 A 222.5 222.5 0 0 0 222.49571 362.04296 A 222.5 222.5 0 0 0 180.98008 232.7246 z M -180.67812 233.05858 A 222.5 222.5 0 0 0 -222.50429 362.04296 A 222.5 222.5 0 0 0 -180.67812 491.02733 A 37.5 37.5 0 0 1 -175.72499 484.73046 A 37.5 37.5 0 0 1 -165.87343 477.73632 A 202.5 202.5 0 0 1 -202.50429 362.04296 A 202.5 202.5 0 0 1 -165.87343 246.3496 A 37.5 37.5 0 0 1 -175.72499 239.35546 A 37.5 37.5 0 0 1 -180.67812 233.05858 z M 115.68907 527.9121 A 202.5 202.5 0 0 1 -0.00429 564.54296 A 202.5 202.5 0 0 1 -115.64296 527.9453 A 37.5 37.5 0 0 1 -122.69179 537.76366 A 37.5 37.5 0 0 1 -128.98867 542.71679 A 222.5 222.5 0 0 0 -0.00429 584.54296 A 222.5 222.5 0 0 0 128.98008 542.71679 A 37.5 37.5 0 0 1 122.68321 537.76366 A 37.5 37.5 0 0 1 115.68907 527.9121 z "
       transform="translate(256.00429,-106.04296)" /><g
       id="g2"
       inkscape:transform-center-y="-149.20382"
       transform="rotate(-45,255.99268,256.00311)"
       style="display:inline"
       inkscape:transform-center-x="149.20383"><circle
         style="fill:#020033;stroke-width:2"
         id="path1"
         cx="256"
         cy="45"
         r="35"
         inkscape:transform-center-x="-2.2164502"
         inkscape:transform-center-y="-219.87186" /><circle
         style="fill:#63bed7;fill-opacity:1;stroke-width:2.00001"
         id="circle2"
         cx="256"
         cy="45"
         r="17.5" /></g><g
       id="g8"
       transform="rotate(-135,255.99874,256.0031)"
       style="display:inline"
       inkscape:transform-center-y="149.20382"
       inkscape:transform-center-x="149.20383"><circle
         style="fill:#020033;stroke-width:2"
         id="circle7"
         cx="256"
         cy="45"
         r="35"
         inkscape:transform-center-x="-2.2164502"
         inkscape:transform-center-y="-219.87186" /><circle
         style="fill:#63bed7;fill-opacity:1;stroke-width:2.00001"
         id="circle8"
         cx="256"
         cy="45"
         r="17.5" /></g><g
       id="g11"
       transform="rotate(135,256.00125,256.0031)"
       style="display:inline"
       inkscape:transform-center-y="149.20382"
       inkscape:transform-center-x="-149.20381"><circle
         style="fill:#020033;stroke-width:2"
         id="circle10"
         cx="256"
         cy="45"
         r="35"
         inkscape:transform-center-x="-2.2164502"
         inkscape:transform-center-y="-219.87186" /><circle
         style="fill:#63bed7;fill-opacity:1;stroke-width:2.00001"
         id="circle11"
         cx="256"
         cy="45"
         r="17.5" /></g><g
       id="g14"
       transform="rotate(45,256.00732,256.0031)"
       style="display:inline"
       inkscape:transform-center-y="-149.20382"
       inkscape:transform-center-x="-149.20382"><circle
         style="fill:#020033;stroke-width:2"
         id="circle13"
         cx="256"
         cy="45"
         r="35"
         inkscape:transform-center-x="-2.2164502"
         inkscape:transform-center-y="-219.87186" /><circle
         style="fill:#63bed7;fill-opacity:1;stroke-width:2.00001"
         id="circle14"
         cx="256"
         cy="45"
         r="17.5" /></g></g></svg>
